<svg width="54" height="53" viewBox="0 0 54 53" fill="none" xmlns="http://www.w3.org/2000/svg">
<path d="M35.4542 0.000488281C38.7405 0.000488281 41.4042 4.99993 41.4042 9.23531C41.4042 13.4707 38.7405 16.9055 35.4542 16.9055C32.1679 16.9055 29.502 13.473 29.502 9.23531C29.502 4.99765 32.1611 0.000488281 35.4542 0.000488281Z" fill="#FFC268"/>
<path d="M18.5457 0C21.832 0 24.4957 4.99944 24.4957 9.23483C24.4957 13.4702 21.832 16.905 18.5457 16.905C15.2594 16.905 12.5957 13.4725 12.5957 9.23483C12.5957 4.99716 15.2594 0 18.5457 0Z" fill="#6D7679"/>
<path d="M0.725095 22.3516C-0.679733 18.8461 -0.0594196 13.8192 2.72743 12.7062C5.51428 11.5932 9.41861 14.8251 10.8143 18.3101C12.21 21.7951 11.0834 25.5401 8.30569 26.6531C5.52796 27.7661 2.1208 25.8343 0.725095 22.3516Z" fill="#00C953"/>
<path d="M53.271 22.3516C51.8753 25.8458 48.4818 27.7776 45.6995 26.6646C42.9172 25.5515 41.7883 21.8156 43.1909 18.3215C44.5934 14.8274 48.4909 11.6046 51.2777 12.7177C54.0646 13.8307 54.6667 18.8461 53.271 22.3516Z" fill="#FF931F"/>
<path d="M48.2854 41.6428C47.6491 38.7804 46.128 36.2008 44.4449 33.8083C40.5018 28.2045 34.1824 22.5459 26.9986 22.5459C19.8148 22.5459 13.4954 28.2045 9.55228 33.8083C7.86922 36.2008 6.35949 38.7804 5.70953 41.6428C5.05957 44.5051 5.4199 47.705 7.19418 50.0314C8.96845 52.3578 12.3254 53.5164 14.9481 52.2574C16.5103 51.5094 17.7737 49.9995 19.4955 49.8558C21.076 49.7235 22.474 50.7864 23.7921 51.6804C24.7454 52.3236 25.8948 52.9097 26.9963 52.9166C28.0978 52.9234 29.245 52.3236 30.1891 51.6804C31.5096 50.7886 32.9053 49.7258 34.488 49.8558C36.2098 49.9995 37.4732 51.5094 39.0354 52.2574C41.6603 53.5164 45.0173 52.3555 46.7893 50.0314C48.5613 47.7073 48.9239 44.5051 48.2854 41.6428Z" fill="#635B5B"/>
</svg>
